<svg width="41" height="40" viewBox="0 0 41 40" fill="none" xmlns="http://www.w3.org/2000/svg">
<path d="M20.5 40C31.5457 40 40.5 31.0457 40.5 20C40.5 8.9543 31.5457 0 20.5 0C9.4543 0 0.5 8.9543 0.5 20C0.5 31.0457 9.4543 40 20.5 40Z" fill="#F53C56" fill-opacity="0.3"/>
<path d="M20.5 39.5C31.2696 39.5 40 30.7696 40 20C40 9.23045 31.2696 0.5 20.5 0.5C9.73045 0.5 1 9.23045 1 20C1 30.7696 9.73045 39.5 20.5 39.5Z" stroke="#F53C56"/>
<path d="M12.5 12H28.5C29.0299 12.0016 29.5377 12.2128 29.9125 12.5875C30.2872 12.9623 30.4984 13.4701 30.5 14V26C30.4984 26.5299 30.2872 27.0377 29.9125 27.4125C29.5377 27.7872 29.0299 27.9984 28.5 28H12.5C11.9701 27.9984 11.4623 27.7872 11.0875 27.4125C10.7128 27.0377 10.5016 26.5299 10.5 26V14C10.5016 13.4701 10.7128 12.9623 11.0875 12.5875C11.4623 12.2128 11.9701 12.0016 12.5 12V12Z" stroke="#F53C56" stroke-width="2" stroke-linecap="round" stroke-linejoin="round"/>
<path d="M30.5 14L20.5 21L10.5 14" stroke="#F53C56" stroke-width="2" stroke-linecap="round" stroke-linejoin="round"/>
</svg>
