<svg width="41" height="40" viewBox="0 0 41 40" fill="none" xmlns="http://www.w3.org/2000/svg">
<path d="M20.5 40C31.5457 40 40.5 31.0457 40.5 20C40.5 8.9543 31.5457 0 20.5 0C9.4543 0 0.5 8.9543 0.5 20C0.5 31.0457 9.4543 40 20.5 40Z" fill="#2DCE98" fill-opacity="0.3"/>
<path d="M20.5 39.5C31.2696 39.5 40 30.7696 40 20C40 9.23045 31.2696 0.5 20.5 0.5C9.73045 0.5 1 9.23045 1 20C1 30.7696 9.73045 39.5 20.5 39.5Z" stroke="#2DCE98"/>
<path d="M26.5 16C26.5 14.4087 25.8679 12.8826 24.7426 11.7574C23.6174 10.6321 22.0913 10 20.5 10C18.9087 10 17.3826 10.6321 16.2574 11.7574C15.1321 12.8826 14.5 14.4087 14.5 16C14.5 23 11.5 25 11.5 25H29.5C29.5 25 26.5 23 26.5 16Z" stroke="#2DCE98" stroke-width="2" stroke-linecap="round" stroke-linejoin="round"/>
<path d="M22.23 29C22.0542 29.3031 21.8019 29.5547 21.4982 29.7295C21.1946 29.9044 20.8504 29.9965 20.5 29.9965C20.1496 29.9965 19.8054 29.9044 19.5018 29.7295C19.1982 29.5547 18.9458 29.3031 18.77 29" stroke="#2DCE98" stroke-width="2" stroke-linecap="round" stroke-linejoin="round"/>
</svg>
