<svg width="14" height="24" viewBox="0 0 14 24" fill="none" xmlns="http://www.w3.org/2000/svg">
<path d="M7 1V23" stroke="white" stroke-width="2" stroke-linecap="round" stroke-linejoin="round"/>
<path d="M12 5H4.5C3.57174 5 2.6815 5.36875 2.02513 6.02513C1.36875 6.6815 1 7.57174 1 8.5C1 9.42826 1.36875 10.3185 2.02513 10.9749C2.6815 11.6313 3.57174 12 4.5 12H9.5C9.95963 12 10.4148 12.0905 10.8394 12.2664C11.264 12.4423 11.6499 12.7001 11.9749 13.0251C12.2999 13.3501 12.5577 13.736 12.7336 14.1606C12.9095 14.5852 13 15.0404 13 15.5C13 15.9596 12.9095 16.4148 12.7336 16.8394C12.5577 17.264 12.2999 17.6499 11.9749 17.9749C11.6499 18.2999 11.264 18.5577 10.8394 18.7336C10.4148 18.9095 9.95963 19 9.5 19H1" stroke="white" stroke-width="2" stroke-linecap="round" stroke-linejoin="round"/>
</svg>
