<svg width="42" height="42" viewBox="0 0 42 42" fill="none" xmlns="http://www.w3.org/2000/svg">
<g filter="url(#filter0_d_2_2803)">
<path d="M21 33C29.2843 33 36 26.2843 36 18C36 9.71573 29.2843 3 21 3C12.7157 3 6 9.71573 6 18C6 26.2843 12.7157 33 21 33Z" fill="#BEE5FF"/>
</g>
<path d="M21 19C21.5523 19 22 18.5523 22 18C22 17.4477 21.5523 17 21 17C20.4477 17 20 17.4477 20 18C20 18.5523 20.4477 19 21 19Z" stroke="#172B4D" stroke-width="2" stroke-linecap="round" stroke-linejoin="round"/>
<path d="M21 12C21.5523 12 22 11.5523 22 11C22 10.4477 21.5523 10 21 10C20.4477 10 20 10.4477 20 11C20 11.5523 20.4477 12 21 12Z" stroke="#172B4D" stroke-width="2" stroke-linecap="round" stroke-linejoin="round"/>
<path d="M21 26C21.5523 26 22 25.5523 22 25C22 24.4477 21.5523 24 21 24C20.4477 24 20 24.4477 20 25C20 25.5523 20.4477 26 21 26Z" stroke="#172B4D" stroke-width="2" stroke-linecap="round" stroke-linejoin="round"/>
<defs>
<filter id="filter0_d_2_2803" x="0" y="0" width="42" height="42" filterUnits="userSpaceOnUse" color-interpolation-filters="sRGB">
<feFlood flood-opacity="0" result="BackgroundImageFix"/>
<feColorMatrix in="SourceAlpha" type="matrix" values="0 0 0 0 0 0 0 0 0 0 0 0 0 0 0 0 0 0 127 0" result="hardAlpha"/>
<feOffset dy="3"/>
<feGaussianBlur stdDeviation="3"/>
<feColorMatrix type="matrix" values="0 0 0 0 0.172549 0 0 0 0 0.156863 0 0 0 0 0.156863 0 0 0 0.11 0"/>
<feBlend mode="normal" in2="BackgroundImageFix" result="effect1_dropShadow_2_2803"/>
<feBlend mode="normal" in="SourceGraphic" in2="effect1_dropShadow_2_2803" result="shape"/>
</filter>
</defs>
</svg>
