<svg width="19" height="18" viewBox="0 0 19 18" fill="none" xmlns="http://www.w3.org/2000/svg">
<path d="M9.50001 0.500977C7.77551 0.500977 6.08974 1.01236 4.65589 1.97046C3.22203 2.92856 2.1045 4.29034 1.44461 5.88359C0.784717 7.47684 0.612111 9.22999 0.948616 10.9213C1.28512 12.6127 2.11563 14.1663 3.3351 15.3856C4.55457 16.6049 6.10824 17.4353 7.79963 17.7716C9.49102 18.1079 11.2441 17.9351 12.8373 17.275C14.4305 16.6149 15.7921 15.4972 16.7501 14.0633C17.708 12.6293 18.2192 10.9435 18.219 9.21898C18.2191 8.07399 17.9937 6.9402 17.5556 5.88236C17.1174 4.82452 16.4752 3.86335 15.6655 3.05377C14.8558 2.24419 13.8946 1.60206 12.8367 1.16404C11.7788 0.726025 10.645 0.500714 9.50001 0.500977ZM14.563 10.201C14.5627 10.3128 14.5182 10.42 14.4391 10.4991C14.36 10.5782 14.2528 10.6227 14.141 10.623H10.907V13.857C10.9067 13.9688 10.8622 14.076 10.7831 14.1551C10.704 14.2342 10.5968 14.2787 10.485 14.279H8.51901C8.40717 14.2787 8.29999 14.2342 8.2209 14.1551C8.14182 14.076 8.09727 13.9688 8.09701 13.857V10.626H4.86001C4.74817 10.6257 4.64099 10.5812 4.5619 10.5021C4.48282 10.423 4.43827 10.3158 4.43801 10.204V8.23798C4.43827 8.12614 4.48282 8.01895 4.5619 7.93987C4.64099 7.86079 4.74817 7.81624 4.86001 7.81598H8.09401V4.57898C8.09414 4.52334 8.10525 4.46828 8.12669 4.41695C8.14813 4.36561 8.17949 4.31901 8.21896 4.27981C8.25844 4.24061 8.30527 4.20958 8.35675 4.1885C8.40824 4.16743 8.46338 4.15671 8.51901 4.15698H10.488C10.5998 4.15724 10.707 4.20179 10.7861 4.28087C10.8652 4.35995 10.9097 4.46714 10.91 4.57898V7.81298H14.144C14.2558 7.81324 14.363 7.85779 14.4421 7.93687C14.5212 8.01595 14.5657 8.12314 14.566 8.23498L14.563 10.201Z" fill="black"/>
</svg>
