<svg width="23" height="26" viewBox="0 0 23 26" fill="none" xmlns="http://www.w3.org/2000/svg">
<path d="M15.955 22.5728V24.5668C15.955 24.8851 15.8286 25.1903 15.6035 25.4154C15.3785 25.6404 15.0733 25.7668 14.755 25.7668H1.2C0.88174 25.7668 0.576516 25.6404 0.351472 25.4154C0.126428 25.1903 0 24.8851 0 24.5668L0 6.21884C0 5.90058 0.126428 5.59536 0.351472 5.37031C0.576516 5.14527 0.88174 5.01884 1.2 5.01884H4.79V19.7798C4.79211 20.5197 5.08695 21.2286 5.61009 21.7518C6.13323 22.2749 6.84216 22.5697 7.582 22.5718L15.955 22.5728ZM15.955 5.42184V0.23584H7.578C7.25974 0.23584 6.95452 0.362268 6.72947 0.587312C6.50443 0.812356 6.378 1.11758 6.378 1.43584V19.7798C6.378 20.0981 6.50443 20.4033 6.72947 20.6284C6.95452 20.8534 7.25974 20.9798 7.578 20.9798H21.14C21.4583 20.9798 21.7635 20.8534 21.9885 20.6284C22.2136 20.4033 22.34 20.0981 22.34 19.7798V6.61784H17.151C16.834 6.61678 16.5302 6.4903 16.3061 6.26602C16.082 6.04174 15.9558 5.73789 15.955 5.42084V5.42184ZM21.986 3.87484L18.7 0.58584C18.4748 0.361466 18.1699 0.23559 17.852 0.23584H17.552V5.02184H22.338V4.72184C22.3377 4.40467 22.2119 4.1005 21.988 3.87584L21.986 3.87484Z" fill="#2DCE98"/>
</svg>
