<svg width="22" height="27" viewBox="0 0 22 27" fill="none" xmlns="http://www.w3.org/2000/svg">
<path d="M1.59998 24C1.60235 24.7949 1.91918 25.5566 2.48128 26.1187C3.04337 26.6808 3.80506 26.9976 4.59998 27H16.6C17.3949 26.9976 18.1566 26.6808 18.7187 26.1187C19.2808 25.5566 19.5976 24.7949 19.6 24V6H1.59998V24ZM5.28998 13.32L7.40498 11.2L10.6 14.385L13.78 11.205L15.9 13.32L12.715 16.5L15.895 19.68L13.78 21.8L10.6 18.615L7.41998 21.8L5.29998 19.68L8.48498 16.5L5.28998 13.32ZM15.85 1.5L14.35 0H6.84998L5.34998 1.5H0.0999756V4.5H21.1V1.5H15.85Z" fill="#F53C56"/>
</svg>
