<svg width="23" height="20" viewBox="0 0 23 20" fill="none" xmlns="http://www.w3.org/2000/svg">
<path d="M15.3201 14.2271L11.5011 10.4091L7.68311 14.2271" stroke="#9EABBA" stroke-width="2" stroke-linecap="round" stroke-linejoin="round"/>
<path d="M11.5022 10.4091V19.0011" stroke="#9EABBA" stroke-width="2" stroke-linecap="round" stroke-linejoin="round"/>
<path d="M19.511 16.5091C20.4423 16.0016 21.178 15.1983 21.602 14.2262C22.026 13.254 22.1141 12.1684 21.8524 11.1406C21.5908 10.1128 20.9943 9.20139 20.1571 8.55032C19.3198 7.89924 18.2896 7.54555 17.229 7.54509H16.029C15.7392 6.4283 15.2 5.3917 14.4521 4.51316C13.7041 3.63461 12.7668 2.93696 11.7106 2.4726C10.6544 2.00824 9.50667 1.78923 8.35366 1.83204C7.20066 1.87485 6.07234 2.17835 5.05345 2.71975C4.03456 3.26116 3.15159 4.02639 2.47085 4.95797C1.79011 5.88956 1.3293 6.96328 1.12303 8.09849C0.916761 9.2337 0.970395 10.4009 1.2799 11.5124C1.58941 12.6239 2.14674 13.6509 2.91005 14.5161" stroke="#9EABBA" stroke-width="2" stroke-linecap="round" stroke-linejoin="round"/>
<path d="M15.3201 14.2271L11.5011 10.4091L7.68311 14.2271" stroke="#9EABBA" stroke-width="2" stroke-linecap="round" stroke-linejoin="round"/>
</svg>
